<?xml version="1.0" encoding="UTF-8" standalone="no"?>
<!-- Created with Inkscape (http://www.inkscape.org/) -->

<svg xmlns:dc="http://purl.org/dc/elements/1.1/" xmlns:cc="http://creativecommons.org/ns#" xmlns:rdf="http://www.w3.org/1999/02/22-rdf-syntax-ns#" xmlns:svg="http://www.w3.org/2000/svg" xmlns="http://www.w3.org/2000/svg" xmlns:sodipodi="http://sodipodi.sourceforge.net/DTD/sodipodi-0.dtd" xmlns:inkscape="http://www.inkscape.org/namespaces/inkscape" id="svg2" version="1.1" inkscape:version="0.48.3.1 r9886" width="336" height="336" sodipodi:docname="vous-etes-ici-chemin.svg">
    <metadata id="metadata8">
        <rdf:RDF>
            <cc:Work rdf:about="">
                <dc:format>image/svg+xml</dc:format>
                <dc:type rdf:resource="http://purl.org/dc/dcmitype/StillImage" />
                <dc:title></dc:title>
            </cc:Work>
        </rdf:RDF>
    </metadata>
    <defs id="defs6" />
    <sodipodi:namedview pagecolor="#ffffff" bordercolor="#666666" borderopacity="1" objecttolerance="10" gridtolerance="10" guidetolerance="10" inkscape:pageopacity="0" inkscape:pageshadow="2" inkscape:window-width="1680" inkscape:window-height="974" id="namedview4" showgrid="false" showguides="true" inkscape:guide-bbox="true" inkscape:zoom="1.9866333" inkscape:cx="138.67239" inkscape:cy="240.07366" inkscape:window-x="1366" inkscape:window-y="24" inkscape:window-maximized="1" inkscape:current-layer="text3139" />
    <path
       transform="matrix(0.82142962,0,0,0.82252598,28.830337,22.789311)"
       style="fill:#ffffff;fill-opacity:1;stroke:none"
       d="m 311.7966,176.54237 c 0,78.63037 -63.74251,142.37288 -142.37288,142.37288 -78.630369,0 -142.372878,-63.74251 -142.372878,-142.37288 0,-78.630366 63.742509,-142.372875 142.372878,-142.372875 78.63037,0 142.37288,63.742509 142.37288,142.372875 z"
       id="path2987" />
       <path
         transform="matrix(0.97171573,0,0,0.97171573,3.368305,-3.5490015)"
         style="fill:#ff0000;fill-opacity:1;stroke:none"
         d="m 311.7966,176.54237 c 0,78.63037 -63.74251,142.37288 -142.37288,142.37288 -78.630369,0 -142.372878,-63.74251 -142.372878,-142.37288 0,-78.630366 63.742509,-142.372875 142.372878,-142.372875 78.63037,0 142.37288,63.742509 142.37288,142.372875 z"
         id="path2987-4" />
         <path
           transform="matrix(0.79668088,0,0,0.79070617,33.02336,25.766408)"
           style="fill:#ffffff;fill-opacity:1;stroke:none"
           d="m 311.7966,176.54237 c 0,78.63037 -63.74251,142.37288 -142.37288,142.37288 -78.630369,0 -142.372878,-63.74251 -142.372878,-142.37288 0,-78.630366 63.742509,-142.372875 142.372878,-142.372875 78.63037,0 142.37288,63.742509 142.37288,142.372875 z"
           id="path2987-9" />
           <path
             style="fill:#ff0000;fill-opacity:1;stroke:none"
             d="m 212.79941,168 c 0.0108,-7.05991 -1.67343,-14.11429 -4.90103,-20.395 -7.7023,-15.46013 -24.94908,-25.46138 -42.20376,-24.34612 -17.74958,0.66563 -34.25366,13.05291 -39.96098,29.85366 -5.90204,16.20873 -1.28808,35.56653 11.35744,47.31635 12.47912,12.21208 32.35039,15.81696 48.34687,8.84996 16.28326,-6.67306 27.6061,-23.6625 27.36146,-41.27885 z"
             id="path2991"
             inkscape:connector-curvature="0" />
             <path
               transform="matrix(-0.14394343,-0.98958592,0.98958592,-0.14394343,0,0)"
               style="fill:#ffffff;fill-opacity:1;stroke:none"
               d="m -119.82309,124.60612 177.687546,0 0,176.68081 -177.687546,0 z"
               id="rect2995" />
               <path
                 style="fill:#ffffff;fill-opacity:1;stroke:none"
                 d="m 236.58115,30.961325 88.59208,0 0,140.941955 -88.59208,0 z"
                 id="rect2997" />
                 <g
                   transform="matrix(0.99424477,0.10713232,-0.10713232,0.99424477,19.266778,-15.551903)"
                   style="font-size:30px;font-style:normal;font-variant:normal;font-weight:normal;font-stretch:normal;text-align:center;line-height:80.00000119%;letter-spacing:0px;word-spacing:0px;writing-mode:lr-tb;text-anchor:middle;fill:#ff0000;fill-opacity:1;stroke:none;font-family:IPAexGothic;-inkscape-font-specification:IPAexGothic"
                   id="text3007">
                   <path
                     d="m 143.91067,30.925001 -3.22675,23.177892 -1.89117,0.468103 -13.46674,-19.045914 2.85809,-0.707434 8.15085,11.835572 c 1.07399,1.575213 1.94479,2.939143 2.6124,4.091795 l 0.0853,-0.02112 c 0.0533,-1.5323 0.1826,-3.143773 0.38789,-4.834425 l 1.63204,-14.257038 2.85808,-0.707434"
                     style="line-height:80.00000119%;fill:#ff0000;font-family:IPAexGothic;-inkscape-font-specification:IPAexGothic"
                     id="path3175" />
                     <path
                       d="m 159.73432,28.988647 c 2.85639,-0.1677 5.25479,0.61102 7.19521,2.336161 2.19841,1.954592 3.40209,4.711039 3.61105,8.269347 0.20376,3.470594 -0.69084,6.311117 -2.68382,8.521579 -1.70683,1.919757 -3.97868,2.962923 -6.81558,3.129499 -2.81742,0.165433 -5.186,-0.605255 -7.10575,-2.312067 -2.238,-1.962028 -3.46118,-4.717329 -3.66955,-8.265912 -0.20378,-3.47057 0.67132,-6.309949 2.62533,-8.518144 1.72516,-1.940377 4.00619,-2.993863 6.84311,-3.160463 m 0.12622,2.149617 c -1.83279,0.107638 -3.36859,0.858131 -4.60739,2.251482 -1.57778,1.785023 -2.27936,4.164221 -2.10477,7.137601 0.17573,2.9929 1.15037,5.263891 2.92392,6.81298 1.37272,1.220465 2.98522,1.776314 4.83751,1.667549 1.84251,-0.108187 3.38863,-0.849503 4.63835,-2.223953 1.57833,-1.77525 2.2782,-4.183695 2.09962,-7.22534 -0.16889,-2.875891 -1.15156,-5.117063 -2.94801,-6.723523 -1.36414,-1.240511 -2.97722,-1.806109 -4.83923,-1.696796"
                       style="line-height:80.00000119%;fill:#ff0000;font-family:IPAexGothic;-inkscape-font-specification:IPAexGothic"
                       id="path3177" />
                       <path
                         d="m 195.65764,31.668145 -1.93643,13.943325 c -0.27406,1.973252 -0.9807,3.511766 -2.11991,4.615547 -1.84911,1.813662 -4.34064,2.50287 -7.47461,2.067628 -3.14367,-0.436589 -5.37245,-1.781351 -6.68635,-4.034289 -0.77867,-1.350416 -1.02965,-3.021921 -0.75291,-5.014521 l 1.93643,-13.943326 2.61166,0.362704 -1.89211,13.624124 c -0.24315,1.75078 -0.004,3.154403 0.71663,4.210875 0.95842,1.404963 2.41942,2.243792 4.383,2.516491 1.99259,0.27673 3.62688,-0.132229 4.90288,-1.226878 0.98552,-0.849061 1.59785,-2.134471 1.83699,-3.856231 l 1.8921,-13.624123 2.58263,0.358674"
                         style="line-height:80.00000119%;fill:#ff0000;font-family:IPAexGothic;-inkscape-font-specification:IPAexGothic"
                         id="path3179" />
                         <path
                           d="m 213.54942,41.687113 c -0.47013,-2.181081 -1.76072,-3.609872 -3.87175,-4.286376 -1.19039,-0.38144 -2.26282,-0.314911 -3.21731,0.199586 -0.74538,0.437975 -1.24622,1.056845 -1.5025,1.856613 -0.28312,0.883494 -0.16218,1.722122 0.36283,2.515887 0.40193,0.56977 1.30005,1.447223 2.69436,2.63236 l 0.83289,0.712985 c 1.88039,1.556278 3.04745,2.986506 3.5012,4.290689 0.39313,1.141213 0.40643,2.283754 0.0399,3.427627 -0.5871,1.83206 -1.72475,3.062118 -3.41294,3.690179 -1.52226,0.558179 -3.21801,0.537767 -5.08726,-0.06124 -3.12473,-1.001325 -5.15341,-2.958901 -6.08604,-5.872733 l 2.44522,-0.862321 c 0.72824,2.335599 2.18508,3.853561 4.37054,4.553891 1.04157,0.333774 2.00867,0.371931 2.90132,0.114473 1.12295,-0.368233 1.86026,-1.101037 2.21193,-2.198414 0.27416,-0.855579 0.18374,-1.725446 -0.27126,-2.609604 -0.49557,-0.917651 -1.58816,-2.052262 -3.27778,-3.403839 l -0.73417,-0.589055 c -2.83998,-2.273948 -3.88447,-4.582699 -3.13347,-6.926261 0.50066,-1.56235 1.43884,-2.681994 2.81456,-3.358935 1.54166,-0.74678 3.29362,-0.805776 5.25589,-0.176988 2.91082,0.932798 4.77157,2.790412 5.58224,5.572848 l -2.41839,0.778623"
                           style="line-height:80.00000119%;fill:#ff0000;font-family:IPAexGothic;-inkscape-font-specification:IPAexGothic"
                           id="path3181" />
                           <path
                             d="m 232.98008,45.213316 11.50011,6.769715 -1.15924,1.969285 -9.25312,-5.446983 -3.52976,5.996219 8.19273,4.822772 -1.11466,1.893543 -8.19273,-4.822772 -3.86417,6.564282 9.59396,5.647622 -1.18898,2.019779 -11.84095,-6.970354 10.85681,-18.443108 m 7.43286,-1.913808 2.09552,1.23356 0.33712,4.855915 -1.47696,-0.869437 -0.7231,-3.247338 -3.20284,0.936272 -1.47697,-0.869436 4.44723,-2.039536"
                             style="line-height:80.00000119%;fill:#ff0000;font-family:IPAexGothic;-inkscape-font-specification:IPAexGothic"
                             id="path3183" />
                             <path
                               d="m 261.23097,67.962548 -6.13706,-5.01388 -12.09448,14.803819 -2.0646,-1.686739 12.09448,-14.80382 -5.94421,-4.856327 1.46431,-1.79234 14.14587,11.556947 -1.46431,1.79234"
                               style="line-height:80.00000119%;fill:#ff0000;font-family:IPAexGothic;-inkscape-font-specification:IPAexGothic"
                               id="path3185" />
                               <path
                                 d="m 260.21817,95.09242 -9.21763,-10.229137 15.92045,-14.346166 8.97248,9.957086 -1.6976,1.529735 -7.22701,-8.020079 -5.21251,4.69707 6.40331,7.105986 -1.59966,1.44148 -6.40331,-7.105985 -5.69132,5.128533 7.47216,8.292131 -1.71936,1.549346"
                                 style="line-height:80.00000119%;fill:#ff0000;font-family:IPAexGothic;-inkscape-font-specification:IPAexGothic"
                                 id="path3187" />
                                 <path
                                   d="m 282.62483,98.280542 c 1.00199,-1.993528 0.89312,-3.915816 -0.3266,-5.76687 -0.68781,-1.043761 -1.56476,-1.664654 -2.63084,-1.862681 -0.85524,-0.126463 -1.63349,0.04136 -2.33475,0.503459 -0.77468,0.510473 -1.20654,1.239462 -1.29557,2.186968 -0.0444,0.695858 0.10468,1.942583 0.44717,3.740177 l 0.20142,1.077723 c 0.48825,2.391542 0.50002,4.237472 0.0353,5.537792 -0.40967,1.13538 -1.116,2.03353 -2.11898,2.69447 -1.60643,1.05854 -3.26401,1.3029 -4.97274,0.73308 -1.53567,-0.52016 -2.84352,-1.59975 -3.92355,-3.23878 -1.80545,-2.73989 -2.15746,-5.536979 -1.05604,-8.391285 l 2.44525,0.862235 c -0.89789,2.275771 -0.71547,4.3718 0.54727,6.28809 0.60181,0.91329 1.33106,1.54964 2.18774,1.90906 1.10555,0.41762 2.13943,0.3094 3.10166,-0.32465 0.7502,-0.49435 1.22542,-1.22852 1.42567,-2.20252 0.18966,-1.02552 0.0505,-2.594508 -0.41761,-4.706963 l -0.20228,-0.919279 c -0.7854,-3.552389 -0.15064,-6.005626 1.90429,-7.359716 1.36992,-0.902716 2.8029,-1.1862 4.29894,-0.850455 1.66908,0.385443 3.07052,1.43845 4.20432,3.159025 1.68183,2.552335 1.96576,5.166237 0.85177,7.841716 l -2.37186,-0.910596"
                                   style="line-height:80.00000119%;fill:#ff0000;font-family:IPAexGothic;-inkscape-font-specification:IPAexGothic"
                                   id="path3189" />
                                   <path
                                     d="m 276.4686,123.34002 -1.04109,-2.45434 19.72908,-8.36879 1.0411,2.45434 -19.72909,8.36879"
                                     style="line-height:80.00000119%;fill:#ff0000;font-family:IPAexGothic;-inkscape-font-specification:IPAexGothic"
                                     id="path3191" />
                                     <path
                                       d="m 288.15803,144.42658 c -1.32926,-0.18878 -2.52823,-0.6569 -3.59691,-1.40434 -1.84003,-1.26323 -3.0745,-3.0288 -3.70342,-5.29671 -0.81161,-2.92667 -0.44923,-5.62151 1.08713,-8.08452 1.44375,-2.28533 3.72777,-3.86119 6.85206,-4.72759 3.23719,-0.89772 6.1323,-0.67195 8.68533,0.6773 2.45421,1.28544 4.06364,3.30679 4.82829,6.06407 1.06732,3.84888 0.16214,6.99826 -2.71554,9.44817 l -1.71477,-2.01748 c 2.22923,-1.86471 2.9746,-4.12865 2.23609,-6.7918 -0.54283,-1.95739 -1.74033,-3.38865 -3.59252,-4.29379 -1.974,-0.94231 -4.3067,-1.04029 -6.99808,-0.29393 -2.3244,0.64458 -4.06692,1.76118 -5.22756,3.34982 -1.37876,1.86193 -1.76672,3.8798 -1.16389,6.05363 0.74635,2.69139 2.5708,4.31869 5.47335,4.8819 l -0.44956,2.43527"
                                       style="line-height:80.00000119%;fill:#ff0000;font-family:IPAexGothic;-inkscape-font-specification:IPAexGothic"
                                       id="path3193" />
                                       <path
                                         d="m 284.26619,152.72515 -0.37241,-2.63988 21.22054,-2.99365 0.37241,2.63988 -21.22054,2.99365"
                                         style="line-height:80.00000119%;fill:#ff0000;font-family:IPAexGothic;-inkscape-font-specification:IPAexGothic"
                                         id="path3195" />
                                     </g>
                                     <g
                                         style="font-size:60px;font-style:normal;font-variant:normal;font-weight:normal;font-stretch:normal;text-align:center;line-height:80.00000119%;letter-spacing:0px;word-spacing:0px;writing-mode:lr-tb;text-anchor:middle;fill:#000000;fill-opacity:1;stroke:none;font-family:SF Toontime Extended;-inkscape-font-specification:SF Toontime Extended"
                                         id="flowRoot3098" />
                                         <g
                                           transform="matrix(1.5159696,0,0,1.6342671,-90.391975,-107.14146)"
                                           style="font-size:19.05963135px;font-style:normal;font-variant:normal;font-weight:normal;font-stretch:normal;text-align:center;line-height:80.00000119%;letter-spacing:0px;word-spacing:0px;writing-mode:lr-tb;text-anchor:middle;fill:#ff0000;fill-opacity:1;stroke:none;font-family:IPAexGothic;-inkscape-font-specification:IPAexGothic"
                                           id="text3139">
                                           <path
                                             d="m 122.80042,166.51018 1.21322,-8.66354 13.48378,1.88824 -1.18096,8.43313 -1.43777,-0.20135 0.95122,-6.79258 -4.41472,-0.61823 -0.84281,6.0184 -1.35482,-0.18973 0.8428,-6.01839 -4.82025,-0.67502 -0.98348,7.02299 -1.45621,-0.20392"
                                             style="line-height:80.00000119%;font-family:IPAexGothic;-inkscape-font-specification:IPAexGothic"
                                             id="path3199" />
                                             <path
                                               d="m 123.85551,177.23428 -0.19079,-1.62679 5.85089,-0.68619 c 1.60213,-0.1879 2.32551,-0.94427 2.17014,-2.26911 -0.15683,-1.33718 -1.07281,-2.223 -2.74793,-2.65746 l -5.85089,0.68619 -0.19079,-1.62679 9.42798,-1.10571 0.17778,1.51587 -1.70074,0.19946 c 1.36729,0.73919 2.13151,1.79585 2.29268,3.17 0.25582,2.18136 -0.84252,3.41586 -3.29501,3.7035 l -5.94332,0.69703"
                                               style="line-height:80.00000119%;font-family:IPAexGothic;-inkscape-font-specification:IPAexGothic"
                                               id="path3201" />
                                               <path
                                                 d="m 139.46194,181.70559 -1.27818,-0.30961 c 0.19561,-0.55601 0.21885,-1.07071 0.0697,-1.54412 -0.33185,-1.05333 -1.20788,-1.35629 -2.62809,-0.90887 l -1.19832,0.37751 0.77739,2.46764 -1.10955,0.34955 -0.77739,-2.46764 -7.94438,2.50274 -0.48657,-1.54449 7.94438,-2.50275 -0.46419,-1.47348 1.10955,-0.34955 0.46419,1.47349 1.16281,-0.36633 c 1.00007,-0.31505 1.85576,-0.32443 2.56708,-0.0281 0.86507,0.37146 1.44955,1.03947 1.75344,2.00404 0.24233,0.76929 0.25504,1.54262 0.0381,2.32"
                                                 style="line-height:80.00000119%;font-family:IPAexGothic;-inkscape-font-specification:IPAexGothic"
                                                 id="path3203" />
                                                 <path
                                                   d="m 138.02992,182.84137 -0.77208,-1.70383 1.73773,-0.78745 0.77208,1.70383 -1.73773,0.78745 m -10.53567,4.64139 -0.67606,-1.49191 8.64629,-3.91804 0.67605,1.4919 -8.64628,3.91805"
                                                   style="line-height:80.00000119%;font-family:IPAexGothic;-inkscape-font-specification:IPAexGothic"
                                                   id="path3205" />
                                                   <path
                                                     d="m 133.68713,197.37182 -0.94463,-1.3381 4.81261,-3.39743 c 1.31782,-0.93032 1.59209,-1.94035 0.8228,-3.03009 -0.77647,-1.09988 -2.0043,-1.44062 -3.68351,-1.02224 l -4.81261,3.39744 -0.94463,-1.3381 7.75492,-5.47454 0.88022,1.24687 -1.39893,0.98756 c 1.5543,-0.004 2.73041,0.55968 3.52835,1.68997 1.26664,1.79428 0.89133,3.40346 -1.12595,4.82756 l -4.88864,3.4511"
                                                     style="line-height:80.00000119%;font-family:IPAexGothic;-inkscape-font-specification:IPAexGothic"
                                                     id="path3207" />
                                                     <path
                                                       d="m 148.38234,195.12556 -1.47964,-1.14447 1.16725,-1.50908 1.47964,1.14447 -1.16725,1.50908 m -1.33127,1.5234 -5.64264,7.29513 c -0.95657,1.2367 -1.97221,1.85514 -3.04692,1.85531 -0.65406,0.004 -1.41759,-0.22584 -2.29057,-0.68929 l 0.40268,-1.41806 c 0.60659,0.35153 1.14062,0.5332 1.6021,0.54503 0.68619,0.005 1.36902,-0.43138 2.0485,-1.30984 l 5.63125,-7.2804 1.2956,1.00212"
                                                       style="line-height:80.00000119%;font-family:IPAexGothic;-inkscape-font-specification:IPAexGothic"
                                                       id="path3209" />
                                                       <path
                                                         d="m 146.90984,202.58863 c -0.45037,1.00313 -0.53793,1.93048 -0.26269,2.78208 0.28062,0.86829 0.82969,1.51151 1.6472,1.92966 1.07711,0.55093 2.18763,0.48478 3.33154,-0.19844 l 0.63075,1.11707 c -1.48749,0.93258 -3.05978,0.97508 -4.71688,0.12749 -1.25388,-0.64135 -2.07922,-1.56873 -2.476,-2.78216 -0.39384,-1.23282 -0.2489,-2.5176 0.43483,-3.85433 0.7261,-1.41959 1.73202,-2.33715 3.01777,-2.75271 1.1438,-0.36967 2.28189,-0.26492 3.41425,0.31426 1.06606,0.54529 1.77873,1.35233 2.138,2.42112 0.38831,1.23001 0.23354,2.52718 -0.4643,3.89153 l -0.17376,0.3397 -6.52071,-3.33527 m 5.56773,1.49937 c 0.30985,-0.81017 0.34856,-1.55345 0.11613,-2.22985 -0.22128,-0.68461 -0.64124,-1.18514 -1.25988,-1.50157 -0.71809,-0.36729 -1.48802,-0.37433 -2.3098,-0.0211 -0.5599,0.23629 -1.05477,0.6452 -1.48463,1.22674 l 4.93818,2.52582"
                                                         style="line-height:80.00000119%;font-family:IPAexGothic;-inkscape-font-specification:IPAexGothic"
                                                         id="path3211" />
                                                         <path
                                                           d="m 167.16738,211.00062 c -1.05993,1.4975 -2.51001,2.12917 -4.35025,1.89499 -1.32326,-0.16839 -2.36357,-0.74171 -3.12095,-1.71995 -0.8149,-1.06686 -1.12562,-2.3604 -0.93216,-3.8806 0.19188,-1.50789 0.81628,-2.6793 1.87319,-3.51424 0.96436,-0.74662 2.09586,-1.03731 3.3945,-0.87206 1.83408,0.2334 3.03784,1.19339 3.61127,2.87997 l -1.39788,0.51635 c -0.39975,-1.23293 -1.17508,-1.92263 -2.326,-2.0691 -0.75703,-0.0963 -1.44774,0.0972 -2.07215,0.58065 -0.78398,0.60698 -1.25312,1.5167 -1.40741,2.72917 -0.14568,1.14477 0.0742,2.09527 0.65972,2.8515 0.51566,0.66603 1.20124,1.05348 2.05674,1.16235 1.16323,0.14803 2.11389,-0.31891 2.85199,-1.4008 l 1.15939,0.84177"
                                                           style="line-height:80.00000119%;font-family:IPAexGothic;-inkscape-font-specification:IPAexGothic"
                                                           id="path3213" />
                                                           <path
                                                             d="m 173.83537,202.95179 -0.18251,1.64388 c -0.21332,-0.0297 -0.40356,-0.0391 -0.57072,-0.0283 -0.73058,0.0474 -1.31195,0.43015 -1.74411,1.14829 -0.53816,0.90533 -0.78596,1.68613 -0.7434,2.3424 l 0.31074,4.79207 -1.6345,0.10599 -0.61427,-9.47269 1.54164,-0.1 0.10818,2.81876 0.0371,-0.002 c 0.56633,-2.10087 1.51815,-3.19467 2.85547,-3.2814 0.21669,-0.014 0.4288,-0.003 0.63634,0.0333"
                                                             style="line-height:80.00000119%;font-family:IPAexGothic;-inkscape-font-specification:IPAexGothic"
                                                             id="path3215" />
                                                             <path
                                                               d="m 177.57668,201.88544 c 1.28862,-0.36797 2.49791,-0.24549 3.62788,0.36741 1.16574,0.64787 1.95986,1.71157 2.38236,3.19109 0.40885,1.4318 0.29574,2.71907 -0.33933,3.86181 -0.624,1.11378 -1.59522,1.85891 -2.91366,2.2354 -1.31845,0.37649 -2.52604,0.25999 -3.62277,-0.34952 -1.14871,-0.63337 -1.93431,-1.68982 -2.3568,-3.16935 -0.41226,-1.44373 -0.29446,-2.74847 0.3534,-3.91423 0.61802,-1.11205 1.57433,-1.85292 2.86892,-2.22261 m 0.34497,1.20808 c -0.76363,0.21807 -1.33255,0.67734 -1.70678,1.3778 -0.48164,0.86665 -0.55124,1.89954 -0.20882,3.09867 0.33731,1.18124 0.93161,2.00841 1.78292,2.48152 0.69024,0.3836 1.42016,0.46552 2.18976,0.24576 0.78749,-0.22487 1.36835,-0.68754 1.74258,-1.38802 0.47311,-0.85131 0.53675,-1.88249 0.19093,-3.09356 -0.32539,-1.13947 -0.92396,-1.95897 -1.79571,-2.45851 -0.70559,-0.39212 -1.43722,-0.48001 -2.19488,-0.26366"
                                                               style="line-height:80.00000119%;font-family:IPAexGothic;-inkscape-font-specification:IPAexGothic"
                                                               id="path3217" />
                                                               <path
                                                                 d="m 183.82117,197.49945 -1.67839,0.82592 -0.84236,-1.71179 1.6784,-0.82592 0.84235,1.71179 m 4.97435,10.38262 -1.46964,0.72319 -4.19123,-8.5172 1.46963,-0.7232 4.19124,8.51721"
                                                                 style="line-height:80.00000119%;font-family:IPAexGothic;-inkscape-font-specification:IPAexGothic"
                                                                 id="path3219" />
                                                                 <path
                                                                   d="m 191.57494,197.32431 c -0.92348,-0.27738 -1.75097,-0.15423 -2.48245,0.36946 -0.95849,0.68623 -1.17408,1.39761 -0.64678,2.13412 0.37201,0.51962 1.19608,0.57822 2.47223,0.17581 l 0.62618,-0.1965 c 1.81112,-0.57175 3.11216,-0.30524 3.90312,0.79954 0.53092,0.74158 0.64287,1.54275 0.33584,2.40352 -0.24953,0.67463 -0.75769,1.28643 -1.52448,1.83541 -1.18047,0.84514 -2.49064,1.13074 -3.93053,0.8568 l 0.29277,-1.36562 c 1.12321,0.22596 2.10353,0.0392 2.94095,-0.56037 0.99381,-0.7115 1.21441,-1.45317 0.66183,-2.22502 -0.41896,-0.58518 -1.31484,-0.68012 -2.68764,-0.28483 l -0.65972,0.19762 c -1.72897,0.50532 -2.92753,0.29134 -3.5957,-0.64194 -0.42257,-0.59022 -0.57653,-1.23159 -0.46189,-1.92411 0.13757,-0.83101 0.63011,-1.5499 1.47761,-2.15667 1.13506,-0.81263 2.34752,-1.0855 3.63739,-0.81862 l -0.35873,1.4014"
                                                                   style="line-height:80.00000119%;font-family:IPAexGothic;-inkscape-font-specification:IPAexGothic"
                                                                   id="path3221" />
                                                               </g>
                                                           </svg>
